<svg width="128" height="93" viewBox="0 0 128 93" fill="none" xmlns="http://www.w3.org/2000/svg">
<path d="M123.21 27.0285H5.3616C4.15948 27.0285 3.00659 27.3723 2.15655 27.9842C1.30652 28.5962 0.828979 29.4262 0.828979 30.2916V36.8179C0.828979 37.6833 1.30652 38.5133 2.15655 39.1253C3.00659 39.7373 4.15948 40.081 5.3616 40.081H123.21C124.412 40.081 125.565 39.7373 126.415 39.1253C127.265 38.5133 127.742 37.6833 127.742 36.8179V30.2916C127.742 29.4262 127.265 28.5962 126.415 27.9842C125.565 27.3723 124.412 27.0285 123.21 27.0285ZM123.21 79.2388H5.3616C4.15948 79.2388 3.00659 79.5825 2.15655 80.1945C1.30652 80.8065 0.828979 81.6365 0.828979 82.5019V89.0282C0.828979 89.8936 1.30652 90.7236 2.15655 91.3356C3.00659 91.9475 4.15948 92.2913 5.3616 92.2913H123.21C124.412 92.2913 125.565 91.9475 126.415 91.3356C127.265 90.7236 127.742 89.8936 127.742 89.0282V82.5019C127.742 81.6365 127.265 80.8065 126.415 80.1945C125.565 79.5825 124.412 79.2388 123.21 79.2388ZM31.4525 13.9759H97.1217C97.5717 13.9759 98.0173 13.9121 98.433 13.788C98.8488 13.664 99.2265 13.4822 99.5445 13.253C99.8626 13.0238 100.115 12.7518 100.287 12.4524C100.459 12.153 100.547 11.8321 100.547 11.5082V3.38905C100.547 3.06525 100.458 2.74462 100.286 2.44547C100.114 2.14631 99.8616 1.87449 99.5435 1.64553C99.2255 1.41657 98.8479 1.23495 98.4324 1.11103C98.0169 0.987118 97.5715 0.923341 97.1217 0.923341H31.4525C31.0025 0.923073 30.5568 0.986652 30.141 1.11045C29.7251 1.23424 29.3472 1.41582 29.0289 1.64481C28.7105 1.8738 28.458 2.14571 28.2857 2.44499C28.1134 2.74428 28.0247 3.06508 28.0247 3.38905V11.5082C28.0247 12.1626 28.3859 12.7903 29.0287 13.2531C29.6715 13.7159 30.5434 13.9759 31.4525 13.9759ZM97.1217 66.1862C97.5717 66.1862 98.0173 66.1223 98.433 65.9983C98.8488 65.8742 99.2265 65.6925 99.5445 65.4633C99.8626 65.2341 100.115 64.962 100.287 64.6626C100.459 64.3633 100.547 64.0424 100.547 63.7184V55.5993C100.547 54.9454 100.186 54.3182 99.5435 53.8558C98.9012 53.3934 98.0301 53.1336 97.1217 53.1336H31.4525C31.0025 53.1333 30.5568 53.1969 30.141 53.3207C29.7251 53.4445 29.3472 53.6261 29.0289 53.8551C28.7105 54.0841 28.458 54.356 28.2857 54.6553C28.1134 54.9546 28.0247 55.2753 28.0247 55.5993V63.7184C28.0247 64.0425 28.1134 64.3634 28.2856 64.6628C28.4579 64.9622 28.7104 65.2342 29.0287 65.4634C29.347 65.6925 29.7249 65.8743 30.1407 65.9983C30.5566 66.1224 31.0024 66.1862 31.4525 66.1862H97.1217Z" fill="#A13232"/>
</svg>
