<svg width="189" height="121" viewBox="0 0 189 121" fill="none" xmlns="http://www.w3.org/2000/svg">
<path d="M182.604 6.05091C171.201 1.66764 159.789 3.24033e-07 148.383 3.24033e-07C112.174 -0.00269376 75.9685 16.7949 39.7599 16.7949C30.679 16.7949 21.6041 15.7388 12.5233 13.0986C11.5032 12.8023 10.4801 12.6622 9.48063 12.6622C4.42136 12.6622 0 16.2507 0 21.2321V106.704C0 110.107 2.12543 113.332 5.53845 114.641C16.9417 119.027 28.3537 120.695 39.7599 120.695C75.9685 120.695 112.177 103.897 148.386 103.897C157.467 103.897 166.542 104.953 175.622 107.594C176.643 107.89 177.666 108.03 178.665 108.03C183.724 108.03 188.146 104.441 188.146 99.4601V13.9904C188.143 10.585 186.017 7.36292 182.604 6.05091V6.05091ZM14.1107 27.0001C20.0254 28.3579 26.1989 29.0395 32.5487 29.4059C30.8201 37.3238 23.2239 43.2912 14.1107 43.2912V27.0001ZM14.1107 103.781V90.9091C24.2146 90.9091 32.39 98.2558 32.8397 107.451C26.2165 106.963 20.0254 105.751 14.1107 103.781V103.781ZM94.0714 86.2106C81.0807 86.2106 70.5535 74.6287 70.5535 60.3474C70.5535 46.0634 81.0836 34.4842 94.0714 34.4842C107.059 34.4842 117.589 46.0634 117.589 60.3474C117.589 74.6341 107.056 86.2106 94.0714 86.2106ZM174.032 93.6948C168.882 92.5121 163.534 91.8493 158.063 91.421C159.789 84.3948 166.148 79.0605 174.032 78.1445V93.6948ZM174.032 30.0848C164.951 29.0314 157.905 22.0834 157.625 13.5027C163.37 14.0874 168.823 15.1811 174.032 16.9134V30.0848Z" fill="white"/>
</svg>
