<svg width="108" height="121" viewBox="0 0 108 121" fill="none" xmlns="http://www.w3.org/2000/svg">
<path d="M90.9274 50.7767C94.4618 43.0918 104.642 20.8623 104.642 13.7432C104.642 7.47271 99.8993 2.21588 91.4409 2.21588C77.968 2.21588 65.8846 33.2618 62.1086 40.6638C59.1783 33.9454 45.4637 0 33.3803 0C23.9855 0 19.5751 5.39827 19.5751 12.1874C19.5751 20.5087 29.9064 42.0782 33.6522 50.376C31.7491 49.8338 29.6949 49.3623 27.6105 49.3623C20.5418 49.3623 13.0199 56.2221 13.0199 61.7618C13.0199 63.8598 14.5001 66.8065 15.4365 68.7631C4.28963 71.1204 3.30796e-05 76.9194 3.30796e-05 85.665C-0.0301753 102.685 20.6324 120.695 49.6929 120.695C85.3388 120.695 107.512 99.809 107.512 72.8648C107.512 62.7047 105.427 53.5348 90.9274 50.7767ZM80.2336 25.4591C81.442 22.5596 86.6076 10.3015 91.4409 10.3015C94.0389 10.3015 94.7337 12.3995 94.7337 14.0732C94.7337 18.5757 83.0732 43.4454 80.5055 48.9616L70.2346 47.5472L80.2336 25.4591ZM29.0605 11.3859C29.0605 8.58065 33.4408 0.612904 43.047 22.4888L53.4992 46.1328C48.7866 45.8263 45.1314 45.4256 42.8054 46.4628C39.5127 39.6737 29.0605 18.2457 29.0605 11.3859ZM28.3657 57.5186C37.2168 57.5186 48.6356 79.8189 48.6356 82.8363C48.6356 84.0385 47.1554 85.5236 45.4335 85.5236C39.1199 85.5236 22.2032 67.3958 22.2032 62.4926C22.2334 60.6774 26.0397 57.5186 28.3657 57.5186ZM84.0399 101.436C75.2492 108.979 64.0117 112.892 50.9012 112.892C32.9574 112.892 18.7897 105.207 11.9626 92.077C6.79693 81.8462 13.1105 75.9765 18.1855 75.9765C21.6293 75.9765 34.5887 90.1911 34.5887 93.2085C34.5887 94.3636 32.2626 95.1651 31.0543 95.1651C26.1907 95.1651 24.2876 91.5112 15.6178 83.0484C6.64589 90.0497 21.8105 103.534 33.2293 103.534C41.1137 103.534 46.2491 97.8288 44.7085 93.6328C45.8262 93.6328 47.2158 93.7035 48.2429 93.4914C48.5752 99.8797 50.9919 107.494 60.8398 108.036C60.8398 107.824 61.444 106.362 61.444 106.292C61.444 102.19 58.2419 98.6067 58.2419 94.4343C58.2419 87.7631 64.7971 81.304 71.443 77.5323C73.8596 76.1179 76.7899 75.2457 79.6295 74.4442C82.5597 73.572 85.6711 72.5583 87.9066 70.8139C87.5743 68.1737 86.1847 65.84 82.8013 65.84C74.4336 65.84 46.37 66.7829 46.37 56.4814C46.37 54.902 46.4002 53.3933 51.6262 53.3933C61.3836 53.3933 86.1545 55.2792 93.4045 60.2531C98.8722 64.0484 100.745 86.938 84.0399 101.436ZM54.2544 71.7333C57.1846 72.464 60.2054 72.6762 63.2263 73.1477C60.9908 74.4206 58.9971 75.9765 57.094 77.6502C56.2481 75.6464 55.221 73.6899 54.2544 71.7333Z" fill="white"/>
</svg>
