<svg width="163" height="182" viewBox="0 0 163 182" fill="none" xmlns="http://www.w3.org/2000/svg">
<path d="M159.18 79.206H149.513C145.084 46.0827 121.51 19.8991 91.6877 14.9798V4.24318C91.6877 1.89988 89.9772 0 87.8674 0H75.133C73.0232 0 71.3127 1.89988 71.3127 4.24318V14.9798C41.4903 19.8991 17.916 46.0827 13.487 79.206H3.82032C1.71055 79.206 0 81.1059 0 83.4492V97.5931C0 99.9364 1.71055 101.836 3.82032 101.836H13.487C17.916 134.96 41.4903 161.143 71.3127 166.062V176.799C71.3127 179.142 73.0232 181.042 75.133 181.042H87.8674C89.9772 181.042 91.6877 179.142 91.6877 176.799V166.062C121.51 161.143 145.084 134.96 149.513 101.836H159.18C161.29 101.836 163 99.9364 163 97.5931V83.4492C163 81.1059 161.29 79.206 159.18 79.206ZM91.6877 143.078V128.71C91.6877 126.366 89.9772 124.467 87.8674 124.467H75.133C73.0232 124.467 71.3127 126.366 71.3127 128.71V143.078C52.7924 138.693 38.1341 122.431 34.1811 101.836H47.1173C49.2271 101.836 50.9376 99.9364 50.9376 97.5931V83.4492C50.9376 81.1059 49.2271 79.206 47.1173 79.206H34.1811C38.1294 58.6358 52.7704 42.3551 71.3127 37.9644V52.3325C71.3127 54.6758 73.0232 56.5757 75.133 56.5757H87.8674C89.9772 56.5757 91.6877 54.6758 91.6877 52.3325V37.9644C110.208 42.3497 124.866 58.6114 128.819 79.206H115.883C113.773 79.206 112.063 81.1059 112.063 83.4492V97.5931C112.063 99.9364 113.773 101.836 115.883 101.836H128.819C124.871 122.407 110.23 138.687 91.6877 143.078ZM91.6877 90.5211C91.6877 96.7703 87.1266 101.836 81.5002 101.836C75.8738 101.836 71.3127 96.7703 71.3127 90.5211C71.3127 84.272 75.8738 79.206 81.5002 79.206C87.1266 79.206 91.6877 84.272 91.6877 90.5211Z" fill="white"/>
</svg>
