<svg width="187" height="220" viewBox="0 0 187 220" fill="none" xmlns="http://www.w3.org/2000/svg">
<path d="M168.583 109.983H139.517V78.6707C139.517 61.4001 149.945 47.3585 162.77 47.3585H165.677C170.509 47.3585 174.397 42.1235 174.397 35.6164V12.1322C174.397 5.62515 170.509 0.390137 165.677 0.390137H162.77C130.652 0.390137 104.638 35.4207 104.638 78.6707V196.092C104.638 209.057 112.449 219.576 122.078 219.576H168.583C178.212 219.576 186.023 209.057 186.023 196.092V133.467C186.023 120.502 178.212 109.983 168.583 109.983ZM63.9454 109.983H34.8793V78.6707C34.8793 61.4001 45.3068 47.3585 58.1322 47.3585H61.0388C65.8711 47.3585 69.7587 42.1235 69.7587 35.6164V12.1322C69.7587 5.62515 65.8711 0.390137 61.0388 0.390137H58.1322C26.0142 0.390137 0 35.4207 0 78.6707V196.092C0 209.057 7.81152 219.576 17.4397 219.576H63.9454C73.5736 219.576 81.3851 209.057 81.3851 196.092V133.467C81.3851 120.502 73.5736 109.983 63.9454 109.983Z" fill="#C5C0C0" fill-opacity="0.48"/>
</svg>
